<svg xmlns="http://www.w3.org/2000/svg" viewBox="0 0 27 18">
  <path fill="currentColor" d="M12.8 0c-.9 0-1.9.2-2.8.5A18.2 18.2 0 00.2 8.6L0 9l.2.4c2.3 3.7 5.9 6.8 9.5 8a11.7 11.7 0 004.5.6c1.6-.2 3-.6 4.5-1.4 3-1.5 5.8-4.1 7.6-7.2l.3-.4-.3-.4a19.5 19.5 0 00-9.5-8 11.8 11.8 0 00-4-.6zm1 1.8a7.2 7.2 0 014.3 12.6v-.2a5 5 0 00-4.7-6.1l-1-.1a3.2 3.2 0 01-2.2-3.7A3.2 3.2 0 0113 1.8h.8zM8.5 3.7a4.8 4.8 0 001.3 4.7 5 5 0 003.5 1.5h.5a3.2 3.2 0 012.6 3.8 3.2 3.2 0 01-2.7 2.5h-1.4A7.2 7.2 0 018.5 3.6zm14 2.8a17.8 17.8 0 012 2.5l-.2.3a18 18 0 01-2.5 2.9v-.3a9.1 9.1 0 000-6l.6.6zM4.6 6.2a9.3 9.3 0 000 6A20.1 20.1 0 012.2 9l.5-.7a19 19 0 012.2-2.5l-.1.4z"/>
</svg>
